<!-- Generator: Adobe Illustrator 19.2.1, SVG Export Plug-In  -->
<svg version="1.1"
	 xmlns="http://www.w3.org/2000/svg" xmlns:xlink="http://www.w3.org/1999/xlink" xmlns:a="http://ns.adobe.com/AdobeSVGViewerExtensions/3.0/"
	 x="0px" y="0px" width="512px" height="596.056px" viewBox="0 0 512 596.056" style="enable-background:new 0 0 512 596.056;"
	 xml:space="preserve">
<style type="text/css">
	.st0{clip-path:url(#SVGID_2_);fill:#737373;}
	.st1{clip-path:url(#SVGID_2_);fill:none;}
	.st2{clip-path:url(#SVGID_4_);fill:#737373;}
	.st3{clip-path:url(#SVGID_4_);fill:none;}
</style>
<defs>
</defs>
<g>
	<defs>
		<rect id="SVGID_1_" width="512" height="512"/>
	</defs>
	<clipPath id="SVGID_2_">
		<use xlink:href="#SVGID_1_"  style="overflow:visible;"/>
	</clipPath>
	<path class="st0" d="M504.224,492.489c-7.496-47.498-13.918-73.188-41.189-97.313c-19.154-16.951-57.782-23.297-95.544-41.095
		C344.89,428.21,273.285,499.627,264,499.627c-9.285,0-80.89-71.417-103.491-145.547c-37.761,17.798-76.39,24.145-95.544,41.095
		c-27.271,24.126-33.693,49.815-41.189,97.313c-3.729,23.598,5.066,44.334,22.168,56.049C74.74,568.219,152.956,596.056,264,596.056
		s189.26-27.837,218.056-47.518C499.158,536.824,507.953,516.088,504.224,492.489z"/>
	<path class="st0" d="M264,383.913c18.834-0.019,65.635-12.28,83.264-42.188c-9.134-9.153-13.466-23.504-15.237-38.139
		c9.191-11.263,17.497-24.389,23.693-39.645c2.919-7.232,4.878-15.707,6.291-24.597c11.376-0.094,22.77-12.694,26.292-29.927
		c3.804-18.608-3.013-35.333-15.218-37.423c-1.205-0.207-2.411-0.151-3.616-0.076c2.072-26.989-2.505-58.855-13.24-77.953
		c-9.285-16.553-45.032-37.911-91.4-37.911c-46.406,0-69.59,10.98-77.086,33.58c-28.533,4.821-32.601,48.629-28.42,82.285
		c-1.469-0.188-2.939-0.17-4.407,0.076c-12.204,2.09-19.022,18.814-15.218,37.423c3.541,17.233,14.936,29.852,26.311,29.927
		c1.413,8.89,3.371,17.364,6.309,24.597c6.177,15.237,14.464,28.363,23.674,39.626c-1.772,14.652-6.122,29.003-15.256,38.157
		C198.365,371.634,245.166,383.894,264,383.913z"/>
	<rect class="st1" width="512" height="512"/>
</g>
</svg>